<svg width="32" height="32" viewBox="0 0 32 32" fill="none" xmlns="http://www.w3.org/2000/svg">
<rect width="32" height="32" rx="4" fill="#5BD0F4"/>
<path d="M16 5C14.6868 5 13.3864 5.28455 12.1731 5.83732C10.9599 6.39015 9.85754 7.20038 8.92891 8.22181C8.00034 9.2433 7.26377 10.4559 6.7612 11.7905C6.25869 13.125 6 14.5555 6 16C6 17.4445 6.25869 18.875 6.7612 20.2095C7.26377 21.5441 8.00034 22.7567 8.92891 23.7782C9.85754 24.7996 10.9599 25.6099 12.1731 26.1627C13.3864 26.7154 14.6868 27 16 27V21.5C15.3434 21.5 14.6932 21.3578 14.0866 21.0813C13.4799 20.8049 12.9287 20.3998 12.4645 19.8891C12.0002 19.3784 11.6319 18.7721 11.3806 18.1048C11.1293 17.4375 11 16.7223 11 16C11 15.2777 11.1293 14.5625 11.3806 13.8952C11.6319 13.2279 12.0002 12.6216 12.4645 12.1109C12.9287 11.6002 13.4799 11.1951 14.0866 10.9187C14.6932 10.6422 15.3434 10.5 16 10.5V5Z" fill="#0F52FF"/>
<path d="M16.0001 19.6665C17.8411 19.6665 19.3334 18.025 19.3334 15.9999C19.3334 13.9748 17.8411 12.3333 16.0001 12.3333C14.1592 12.3333 12.6668 13.9748 12.6668 15.9999C12.6668 18.025 14.1592 19.6665 16.0001 19.6665Z" fill="#0F52FF"/>
<path d="M6 16C6 17.4445 6.25869 18.875 6.7612 20.2095C7.26377 21.5441 8.00034 22.7567 8.92891 23.7782C9.85754 24.7996 10.9599 25.6099 12.1731 26.1627C13.3864 26.7154 14.6868 27 16 27C17.3132 27 18.6136 26.7154 19.8269 26.1627C21.0401 25.6099 22.1425 24.7996 23.0711 23.7782C23.9997 22.7567 24.7362 21.5441 25.2388 20.2095C25.7413 18.875 26 17.4445 26 16H21C21 16.7223 20.8707 17.4375 20.6194 18.1048C20.3681 18.7721 19.9998 19.3784 19.5355 19.8891C19.0713 20.3998 18.5201 20.8049 17.9134 21.0813C17.3068 21.3578 16.6566 21.5 16 21.5C15.3434 21.5 14.6932 21.3578 14.0866 21.0813C13.4799 20.8049 12.9287 20.3998 12.4645 19.8891C12.0002 19.3784 11.6319 18.7721 11.3806 18.1048C11.1293 17.4375 11 16.7223 11 16H6Z" fill="white"/>
<path d="M19.3334 16C19.3334 15.0275 18.9822 14.0949 18.3571 13.4072C17.7319 12.7196 16.8841 12.3333 16.0001 12.3333C15.116 12.3333 14.2682 12.7196 13.643 13.4072C13.0179 14.0949 12.6667 15.0275 12.6667 16H16.0001H19.3334Z" fill="white"/>
</svg>
