<svg width="32" eight="33" viewBox="0 0 32 33" fill="none"
    xmlns="http://www.w3.org/2000/svg">
    <rect y="0.477051" width="32" height="32" rx="4" fill="#5077B5" />
    <path fill-rule="evenodd" clip-rule="evenodd" d="M26 16.7696C26 11.9606 22.0621 8.06212 17.2045 8.06212C16.2936 8.06212 15.4151 8.19918 14.5889 8.45358C14.7302 8.95889 14.8057 9.49126 14.8057 10.0411C14.8057 13.32 12.1208 15.978 8.80875 15.978C8.68702 15.978 8.56614 15.9744 8.44581 15.9671C8.42142 16.2314 8.40896 16.499 8.40896 16.7696C8.40896 21.5786 12.3468 25.4771 17.2045 25.4771C22.0621 25.4771 26 21.5786 26 16.7696ZM8.72716 13.6051V8.13794H7.48583V13.6051H8.72716ZM7.24133 13.1652V7.69791H6V13.1652H7.24133ZM10.1723 12.9117V7.44456H8.931V12.9117H10.1723ZM11.6175 11.9441V6.47705H10.3761V11.9441H11.6175ZM17.4621 20.3713C17.7857 20.5072 18.1317 20.5751 18.5 20.5751H19.6551V19.0772H18.5C18.34 19.0772 18.1894 19.0478 18.048 18.9891C17.9066 18.9266 17.7839 18.844 17.6797 18.7412C17.5755 18.6384 17.4937 18.5191 17.4342 18.3833C17.3746 18.2438 17.3449 18.0951 17.3449 17.9372V16.186H19.6551V14.6881H17.3449V12.331H15.827V14.6881H15.0848V16.186H15.827V17.9372C15.827 18.3007 15.8958 18.6421 16.0335 18.9615C16.1749 19.2809 16.3664 19.5618 16.6083 19.8041C16.8538 20.0427 17.1384 20.2318 17.4621 20.3713Z" fill="white" />
</svg>
