<svg xmlns="http://www.w3.org/2000/svg" width="256" height="256" viewBox="0 0 256 256">
    <g fill="none" fill-rule="evenodd">
        <rect width="256" height="256" rx="12"/>
        <path fill="#FFF" d="M128.532 64.362c36.85 0 66.722 30.272 66.722 67.615 0 37.344-29.872 67.616-66.722 67.616-36.85 0-66.722-30.272-66.722-67.616 0-2.1.095-4.18.28-6.232.912.058 1.829.086 2.753.086 25.125 0 45.492-20.64 45.492-46.102 0-4.269-.572-8.402-1.644-12.325 6.266-1.978 12.931-3.042 19.841-3.042zm3.033 30.734h-14.182v17.986h-7.048v14.285h7.048V138.9c0 15.06 12.484 26.505 26.92 26.505h2.123V151.12h-2.123c-7.218 0-12.738-5.336-12.738-12.22v-11.532h14.86v-14.285h-14.86V95.096zM64.218 64.971v42.395h-9.5V64.97h9.5zm-11.37-3.412v42.395h-9.5V61.56h9.5zm22.43-1.965v42.394h-9.5V59.594h9.5zm11.06-7.502v42.394h-9.5V52.092h9.5z"/>
    </g>
</svg>
