<svg width="32" height="33" viewBox="0 0 32 33" fill="none"
    xmlns="http://www.w3.org/2000/svg">
    <rect y="0.477051" width="32" height="32" rx="4" fill="#5F94F5"/>
    <path fill-rule="evenodd" clip-rule="evenodd" d="M26 16.7696C26 11.9606 22.0621 8.06212 17.2045 8.06212C16.2936 8.06212 15.4151 8.19918 14.5889 8.45358C14.7302 8.95889 14.8057 9.49126 14.8057 10.0411C14.8057 13.32 12.1208 15.978 8.80875 15.978C8.68702 15.978 8.56614 15.9744 8.44581 15.9671C8.42142 16.2314 8.40896 16.499 8.40896 16.7696C8.40896 21.5786 12.3468 25.4771 17.2045 25.4771C22.0621 25.4771 26 21.5786 26 16.7696ZM8.72716 13.6051V8.13794H7.48583V13.6051H8.72716ZM7.24133 13.1652V7.69791H6V13.1652H7.24133ZM10.1723 12.9117V7.44456H8.931V12.9117H10.1723ZM11.6175 11.9441V6.47705H10.3761V11.9441H11.6175ZM19.2924 20.4925C19.7537 20.3236 20.1704 20.0813 20.5424 19.7655L19.6942 18.3888C19.4598 18.6384 19.1827 18.8312 18.8627 18.967C18.5428 19.0992 18.208 19.1653 17.8583 19.1653C17.5048 19.1653 17.1737 19.0992 16.865 18.967C16.5562 18.8349 16.2865 18.655 16.0558 18.4273C15.8251 18.1997 15.6429 17.9354 15.5089 17.6343C15.375 17.3296 15.308 17.0047 15.308 16.6596C15.308 16.3145 15.375 15.9896 15.5089 15.6848C15.6429 15.3764 15.8251 15.1103 16.0558 14.8863C16.2865 14.6587 16.5562 14.4788 16.865 14.3466C17.1737 14.2144 17.5048 14.1484 17.8583 14.1484C18.208 14.1484 18.5428 14.2163 18.8627 14.3521C19.1827 14.4843 19.4598 14.6752 19.6942 14.9249L20.5424 13.5481C20.1704 13.2287 19.7537 12.9864 19.2924 12.8212C18.8311 12.6523 18.3531 12.5678 17.8583 12.5678C17.4788 12.5678 17.1124 12.6174 16.7589 12.7165C16.4092 12.812 16.08 12.9497 15.7712 13.1296C15.4661 13.3058 15.1871 13.5187 14.9342 13.7684C14.6812 14.018 14.4635 14.2952 14.2812 14.5999C14.1027 14.901 13.9632 15.2259 13.8627 15.5747C13.766 15.9235 13.7176 16.2851 13.7176 16.6596C13.7176 17.0341 13.766 17.3957 13.8627 17.7445C13.9632 18.0896 14.1027 18.4145 14.2812 18.7192C14.4635 19.0203 14.6812 19.2956 14.9342 19.5453C15.1871 19.7949 15.4661 20.0097 15.7712 20.1896C16.08 20.3658 16.4092 20.5017 16.7589 20.5971C17.1124 20.6962 17.4788 20.7458 17.8583 20.7458C18.3531 20.7458 18.8311 20.6614 19.2924 20.4925Z" fill="white"/>
</svg>
