<svg xmlns="http://www.w3.org/2000/svg" width="180" fill="#27578c" height="40" style="enable-background:new 0 0 180 40" xml:space="preserve"><path class="st0" d="M0 6.5h7.5v29.2H0zM8.9 8.8h7.5V38H8.9zM17.7 5.1h7.5v29.2h-7.5zM26.4 0h7.5v29.2h-7.5zM58.6 9.3l9.2 24.5h-5.6l-1.9-5.5h-9.2l-1.9 5.5h-5.4l9.3-24.5h5.5zm.3 15.1-3.1-9h-.1l-3.2 9h6.4zM80.7 31.6c-.6 1-1.3 1.7-2.2 2.1-.9.4-2 .6-3.1.6-1.3 0-2.5-.3-3.5-.8s-1.8-1.2-2.5-2.1c-.7-.9-1.1-1.9-1.5-3-.3-1.1-.5-2.3-.5-3.6 0-1.2.2-2.3.5-3.4s.8-2.1 1.5-2.9c.7-.8 1.5-1.5 2.5-2s2.1-.8 3.4-.8c1.1 0 2.1.2 3 .7.9.4 1.7 1.1 2.2 2h.1V9.3h4.9v24.5h-4.6l-.2-2.2zm-.2-8.8c-.1-.7-.4-1.3-.7-1.8-.3-.5-.8-.9-1.3-1.3-.5-.3-1.2-.5-2-.5s-1.5.2-2 .5-1 .7-1.3 1.3c-.3.5-.6 1.1-.7 1.8-.1.7-.2 1.4-.2 2.1 0 .7.1 1.4.2 2.1.2.7.4 1.3.8 1.8s.8 1 1.3 1.3c.5.3 1.2.5 1.9.5.8 0 1.5-.2 2-.5s1-.7 1.3-1.3c.3-.5.5-1.1.7-1.8.1-.7.2-1.4.2-2.1 0-.7-.1-1.4-.2-2.1M89 18.7c.5-.8 1.1-1.4 1.9-1.8.8-.5 1.7-.8 2.6-1 1-.2 1.9-.3 2.9-.3.9 0 1.8.1 2.7.2.9.1 1.7.4 2.5.7.8.4 1.4.9 1.9 1.5.5.7.7 1.5.7 2.6v9.2c0 .8 0 1.6.1 2.3.1.7.3 1.3.5 1.6H100c-.1-.3-.2-.6-.2-.8-.1-.3-.1-.6-.1-.9-.8.8-1.7 1.4-2.7 1.7-1.1.3-2.1.5-3.2.5-.8 0-1.6-.1-2.4-.3-.7-.2-1.4-.5-1.9-1-.5-.4-1-1-1.3-1.6-.3-.7-.5-1.4-.5-2.4s.2-1.8.5-2.5c.4-.7.8-1.2 1.4-1.6.6-.4 1.2-.7 1.9-.9.7-.2 1.4-.3 2.2-.5.7-.1 1.5-.2 2.2-.3.7-.1 1.3-.2 1.9-.3.5-.1 1-.3 1.3-.6.3-.3.5-.6.4-1.1 0-.5-.1-.9-.3-1.2s-.4-.5-.7-.7c-.3-.2-.6-.3-1-.3-.4-.1-.8-.1-1.2-.1-1 0-1.7.2-2.3.6-.5.4-.9 1.1-1 2.1h-4.9c.1-1.1.4-2 .9-2.8m9.7 6.9c-.3.1-.6.2-1 .3-.4.1-.7.1-1.1.2-.4 0-.8.1-1.2.2-.4.1-.7.2-1.1.3-.4.1-.7.3-.9.5-.3.2-.5.4-.6.7-.2.3-.2.7-.2 1.1 0 .4.1.8.2 1.1.2.3.4.5.7.7.3.2.6.3 1 .4.4.1.7.1 1.1.1 1 0 1.7-.2 2.2-.5.5-.3.9-.7 1.2-1.1.2-.4.4-.9.5-1.4.1-.5.1-.8.1-1.1v-1.8c-.4 0-.6.2-.9.3M111.4 16.1v2.3h.1c.6-1 1.3-1.7 2.3-2.1.9-.4 1.9-.7 3-.7 1.4 0 2.6.3 3.6.8s1.8 1.2 2.5 2.1c.7.9 1.2 1.9 1.5 3 .3 1.2.5 2.4.5 3.6 0 1.2-.2 2.3-.5 3.4s-.8 2.1-1.5 2.9c-.7.8-1.5 1.5-2.4 2-1 .5-2.1.8-3.4.8-1.1 0-2.1-.2-3-.7-.9-.4-1.7-1.1-2.3-2h-.1V40h-4.9V16.1h4.6zm6.3 14.1c.5-.3 1-.7 1.3-1.3.3-.5.6-1.1.7-1.8.1-.7.2-1.4.2-2.1 0-.7-.1-1.4-.2-2.1-.1-.7-.4-1.3-.7-1.8-.3-.5-.8-1-1.3-1.3-.5-.3-1.2-.5-2-.5s-1.5.2-2 .5-1 .8-1.3 1.3c-.3.5-.6 1.1-.7 1.8-.1.7-.2 1.4-.2 2.1 0 .7.1 1.4.2 2.1.1.7.4 1.3.7 1.8.3.5.8.9 1.3 1.3.5.3 1.2.5 2 .5.8-.1 1.5-.2 2-.5M136.5 16.1v3.3h-3.6v8.8c0 .8.1 1.4.4 1.6.3.3.8.4 1.6.4h.8c.3 0 .5-.1.7-.1v3.8c-.4.1-.9.1-1.4.1h-1.5c-.8 0-1.5-.1-2.1-.2-.7-.1-1.3-.3-1.8-.6s-.9-.7-1.2-1.3c-.3-.5-.4-1.3-.4-2.2V19.4h-2.9v-3.3h2.9v-5.3h4.9v5.3h3.6zM138.6 9.3h4.9v4h-4.9v-4zm4.9 24.5h-4.9V16.1h4.9v17.7zM151 33.8l-6-17.7h5.1l3.7 12.1h.1l3.7-12.1h4.9l-6 17.7zM168.4 29.6c.7.7 1.8 1.1 3.2 1.1 1 0 1.8-.2 2.5-.7.7-.5 1.1-1 1.3-1.6h4.3c-.7 2.1-1.7 3.6-3.2 4.6-1.4.9-3.1 1.4-5.1 1.4-1.4 0-2.7-.2-3.8-.7-1.1-.4-2.1-1.1-2.8-1.9-.8-.8-1.4-1.8-1.8-3-.4-1.1-.6-2.4-.6-3.8 0-1.3.2-2.6.7-3.7.4-1.1 1.1-2.1 1.9-3 .8-.8 1.8-1.5 2.9-2 1.1-.5 2.3-.7 3.7-.7 1.5 0 2.8.3 3.9.9 1.1.6 2 1.4 2.8 2.3.7 1 1.2 2.1 1.6 3.4.3 1.3.4 2.6.3 3.9h-12.8c-.2 1.6.2 2.8 1 3.5m5.5-9.4c-.6-.6-1.5-1-2.7-1-.8 0-1.4.1-1.9.4-.5.3-.9.6-1.2 1-.3.4-.5.8-.7 1.2-.1.4-.2.8-.2 1.2h7.9c-.2-1.2-.6-2.1-1.2-2.8"/></svg>