<svg xmlns:dc="http://purl.org/dc/elements/1.1/" xmlns:cc="http://creativecommons.org/ns#" xmlns:rdf="http://www.w3.org/1999/02/22-rdf-syntax-ns#"  xmlns="http://www.w3.org/2000/svg" viewBox="0 0.950496 480 142.099" height="100%" width="100%" xml:space="preserve" id="svg2" version="1.1" xmlns:xlink="http://www.w3.org/1999/xlink" preserveAspectRatio="xMidYMid meet" ><rect id="svgEditorBackground" x="0" y="0" width="816" height="1056" style="fill: none; stroke: none;"/><metadata id="metadata8"><rdf:RDF><cc:Work rdf:about=""><dc:format>image/svg+xml</dc:format><dc:type rdf:resource="http://purl.org/dc/dcmitype/StillImage"/></cc:Work></rdf:RDF></metadata><defs id="defs6"><clipPath id="clipPath22" clipPathUnits="userSpaceOnUse"><path id="path20" d="M 0,792 H 612 V 0 H 0 Z"/></clipPath><clipPath id="clipPath34" clipPathUnits="userSpaceOnUse"><path id="path32" d="M 0,792 H 612 V 0 H 0 Z"/></clipPath></defs><g transform="matrix(1.33333 0 0 -1.33333 -164.571 825.796)" id="g10"><text id="text14" style="font-variant:normal;font-weight:normal;font-stretch:condensed;font-size:12px;font-family:'Roboto Condensed';-inkscape-font-specification:RobotoCondensed-Regular;writing-mode:lr-tb;fill-opacity:1;fill-rule:nonzero;stroke:none" transform="matrix(1,0,0,-1,462.8267,594.4761)"><tspan id="tspan12" y="0" x="0">R</tspan></text>
 <style type="text/css">
      <![CDATA[
      path {
        fill: #212a35;
        stroke:  #212a35;
      }
      ]]>
    </style>
  <g id="g16"><g clip-path="url(#clipPath22)" id="g18"><g transform="translate(474.5648,599)" id="g24"><path id="path26" style="fill:none;stroke-width:1;stroke-linecap:butt;stroke-linejoin:miter;stroke-miterlimit:10;stroke-dasharray:none;stroke-opacity:1" d="m 0,0 c 0,-4.73 -3.835,-8.565 -8.565,-8.565 -4.73,0 -8.565,3.835 -8.565,8.565 0,4.73 3.835,8.565 8.565,8.565 C -3.835,8.565 0,4.73 0,0 Z"/></g></g></g><g id="g28"><g clip-path="url(#clipPath34)" id="g30"><g transform="translate(147.5508,563.422)" id="g36"><path id="path38" style="fill-opacity:1;fill-rule:nonzero;stroke:none" d="m 0,0 c 0,7.643 5.215,13.189 12.402,13.189 7.221,0 12.665,-5.745 12.665,-13.364 v -0.176 c 0,-6.554 -4.29,-13.19 -12.489,-13.19 C 5.525,-13.541 0,-7.671 0,-0.175 Z m 12.578,25.481 c -14.681,0 -26.181,-11.27 -26.181,-25.656 v -0.176 c 0,-14.239 11.423,-25.393 26.005,-25.393 14.73,0 26.269,11.23 26.269,25.569 V 0 c 0,14.288 -11.462,25.481 -26.093,25.481"/></g><g transform="translate(227.955,563.422)" id="g40"><path id="path42" style="fill-opacity:1;fill-rule:nonzero;stroke:none" d="m 0,0 v -0.175 c 0,-7.818 -4.812,-13.279 -11.703,-13.279 -6.82,0 -11.964,5.71 -11.964,13.279 V 0 c 0,7.569 5.144,13.277 11.964,13.277 C -4.922,13.277 0,7.692 0,0 m -9.253,25.481 c -5.569,0 -10.233,-1.965 -14.152,-5.986 v 3.513 c 0,0.834 -0.675,1.509 -1.509,1.509 H -35.5 c -0.833,0 -1.508,-0.675 -1.508,-1.509 v -60.191 c 0,-0.834 0.675,-1.509 1.508,-1.509 h 10.586 c 0.834,0 1.509,0.675 1.509,1.509 v 17.194 c 3.926,-3.764 8.67,-5.668 14.152,-5.668 11.445,0 23.031,8.754 23.031,25.482 V 0 c 0,16.55 -11.866,25.481 -23.031,25.481"/></g><g transform="translate(269.5127,577.2238)" id="g44"><path id="path46" style="fill-opacity:1;fill-rule:nonzero;stroke:none" d="M 0,0 C 6.009,0 9.017,-4.463 9.969,-9.144 H -10.179 C -8.861,-3.533 -4.999,0 0,0 m 0.087,11.679 c -13.728,0 -24.081,-10.993 -24.081,-25.569 v -0.176 c 0,-14.765 10.606,-25.48 25.218,-25.48 8.218,0 14.965,3.095 20.056,9.205 0.523,0.624 0.452,1.554 -0.157,2.094 l -6.212,5.511 c -0.59,0.525 -1.489,0.504 -2.055,-0.047 -3.698,-3.611 -7.017,-5.084 -11.457,-5.084 -5.816,0 -9.991,3.219 -11.449,8.706 h 32.097 c 0.784,0 1.437,0.6 1.503,1.384 l 0.02,0.243 c 0.082,0.981 0.16,1.906 0.16,2.857 0,13.118 -7.311,26.356 -23.643,26.356"/></g><g transform="translate(325.9199,588.9025)" id="g48"><path id="path50" style="fill-opacity:1;fill-rule:nonzero;stroke:none" d="m 0,0 c -5.124,0 -9.385,-1.772 -12.928,-5.396 v 2.924 c 0,0.834 -0.675,1.509 -1.509,1.509 h -10.585 c -0.833,0 -1.508,-0.675 -1.508,-1.509 v -46.194 c 0,-0.834 0.675,-1.508 1.508,-1.508 h 10.585 c 0.834,0 1.509,0.674 1.509,1.508 v 26.071 c 0,6.14 3.411,9.954 8.903,9.954 6.925,0 8.379,-5.317 8.379,-9.778 v -26.247 c 0,-0.834 0.674,-1.508 1.508,-1.508 h 10.587 c 0.832,0 1.508,0.674 1.508,1.508 V -19.27 C 17.957,-7.383 11.076,0 0,0"/></g><g transform="translate(380.6806,604.8502)" id="g52"><path id="path54" style="fill-opacity:1;fill-rule:nonzero;stroke:none" d="m 0,0 c -2.149,0.637 -4.903,1.288 -9.003,1.288 -4.952,0 -8.708,-1.347 -11.477,-4.117 -2.791,-2.79 -4.205,-7.005 -4.205,-12.528 v -1.816 h -4.354 c -0.832,0 -1.509,-0.675 -1.509,-1.509 v -8.836 c 0,-0.834 0.677,-1.508 1.509,-1.508 h 4.354 v -35.588 c 0,-0.834 0.676,-1.508 1.508,-1.508 h 10.587 c 0.833,0 1.509,0.674 1.509,1.508 v 35.588 h 10.564 c 0.832,0 1.509,0.674 1.509,1.508 v 8.75 c 0,0.833 -0.677,1.507 -1.509,1.507 h -10.74 v 1.029 c 0,4.824 2.218,5.491 4.617,5.491 2.12,0 3.825,-0.424 5.737,-1.06 0.455,-0.157 0.962,-0.075 1.358,0.206 0.394,0.285 0.625,0.74 0.625,1.224 v 8.925 C 1.08,-0.777 0.641,-0.189 0,0"/></g><g transform="translate(400.746,587.9391)" id="g56"><path id="path58" style="fill-opacity:1;fill-rule:nonzero;stroke:none" d="m 0,0 h -10.587 c -0.833,0 -1.506,-0.675 -1.506,-1.509 v -46.194 c 0,-0.834 0.673,-1.508 1.506,-1.508 H 0 c 0.832,0 1.509,0.674 1.509,1.508 V -1.509 C 1.509,-0.675 0.832,0 0,0"/></g><g transform="translate(436.5742,588.9025)" id="g60"><path id="path62" style="fill-opacity:1;fill-rule:nonzero;stroke:none" d="m 0,0 c -5.125,0 -9.388,-1.772 -12.928,-5.396 v 2.924 c 0,0.834 -0.677,1.509 -1.509,1.509 h -10.586 c -0.833,0 -1.509,-0.675 -1.509,-1.509 v -46.194 c 0,-0.834 0.676,-1.508 1.509,-1.508 h 10.586 c 0.832,0 1.509,0.674 1.509,1.508 v 26.071 c 0,6.14 3.41,9.954 8.903,9.954 6.925,0 8.376,-5.317 8.376,-9.778 v -26.247 c 0,-0.834 0.675,-1.508 1.508,-1.508 h 10.587 c 0.832,0 1.508,0.674 1.508,1.508 V -19.27 C 17.954,-7.383 11.074,0 0,0"/></g><g transform="translate(395.3056,591.8063)" id="g64"><path id="path66" style="fill-opacity:1;fill-rule:nonzero;stroke:none" d="m 0,0 c 3.668,0 6.653,2.985 6.653,6.652 0,3.669 -2.985,6.653 -6.653,6.653 -3.667,0 -6.652,-2.984 -6.652,-6.653 C -6.652,2.985 -3.667,0 0,0"/></g></g></g></g></svg>
